<svg id="Слой_1" data-name="Слой 1" xmlns="http://www.w3.org/2000/svg" viewBox="0 0 100 100"><defs><style>.cls-1{fill:#333;}</style></defs><title>Монтажная область 1</title><path class="cls-1" d="M49,65,45.81,84.93c-10-4-22.93-4.84-30.28-5l1.52-6.74a8.82,8.82,0,0,1,4.86-6L35,61l5.62-4Z"/><path class="cls-1" d="M84.47,80c-7.35.14-20.32,1-30.28,5L51,65l8.38-8L65,61l13.09,6.16a8.82,8.82,0,0,1,4.86,6Z"/><path class="cls-1" d="M12.93,91.44c8.83,0,18.8,2.94,29.68,8.56H17a4.83,4.83,0,0,1-4.71-5.89Z"/><path class="cls-1" d="M83,100H57.38c10.88-5.62,20.86-8.51,29.69-8.56l.6,2.67A4.83,4.83,0,0,1,83,100Z"/><path class="cls-1" d="M50,6.5c-11,0-20,6.65-20,22.25a39.35,39.35,0,0,0,.41,5.71C32.28,47.32,40.34,57,50,57c5.67,0,10.78-3.33,14.41-8.68A35,35,0,0,0,70,28.75C70,13.15,61.05,6.5,50,6.5ZM62.64,47.41C59.39,52.11,54.92,55,50,55c-8.23,0-15.18-8.09-17.32-19.11A8.47,8.47,0,0,1,33.25,31C34.51,28,36.51,24,42.5,24c2.35,0,4.38,2.15,5,4,1,3-3,4-2,5s5-1,9-3c2.51-1.27,9.1-3,12-2h0A2.13,2.13,0,0,1,68,30.12c0,1.15-.13,2.29-.28,3.4A31.19,31.19,0,0,1,62.64,47.41Z"/><path class="cls-1" d="M94,87.82l0,1.67a.41.41,0,0,1-.47.4C81.2,88,67.93,92,54.75,99.13c-1.59.85-7.91.85-9.5,0C32.07,92,18.8,88,6.47,89.89a.41.41,0,0,1-.47-.4l0-1.67a.39.39,0,0,1,.36-.4l1-.13L9,82c10.38-.39,30.17.58,41,7.2,10.83-6.62,30.62-7.59,41-7.2l1.66,5.29,1,.13A.39.39,0,0,1,94,87.82Z"/></svg>