<svg id="Слой_1" data-name="Слой 1" xmlns="http://www.w3.org/2000/svg" viewBox="0 0 58 58"><defs><style>.cls-1{fill:#fff;}</style></defs><title>1Монтажная область 1</title><path class="cls-1" d="M48.5,41.92a2.06,2.06,0,0,1-2.88-.47l-6.37-8.87H27.94a1.5,1.5,0,0,1-.37,0,3.28,3.28,0,0,1-2.75-2.84l-1-8.67a3.27,3.27,0,0,1,2.85-3.62,2.42,2.42,0,0,1,.38,0,3.28,3.28,0,0,1,3.24,2.86l.37,3.14h6.65a1.34,1.34,0,0,1,1.34,1.34,1.33,1.33,0,0,1-1.34,1.34H30.94l.21,1.75H40a2.08,2.08,0,0,1,1.54.86L49,39A2.07,2.07,0,0,1,48.5,41.92Z"/><circle class="cls-1" cx="27.24" cy="13.2" r="3.45"/><path class="cls-1" d="M39.29,35v.21a10.22,10.22,0,1,1-16.18-8.31l-.38-3.14a13.12,13.12,0,0,0-6.47,14.15A14,14,0,0,0,26.31,48a13.1,13.1,0,0,0,15.44-9.58Z"/></svg>