<svg id="Слой_1" data-name="Слой 1" xmlns="http://www.w3.org/2000/svg" xmlns:xlink="http://www.w3.org/1999/xlink" viewBox="0 0 100 100"><defs><style>.cls-1{fill:url(#Безымянный_градиент_35);}.cls-2{fill:#333;}</style><radialGradient id="Безымянный_градиент_35" cx="50" cy="50" r="49" gradientUnits="userSpaceOnUse"><stop offset="0.4" stop-color="#fff"/><stop offset="1" stop-color="#fff" stop-opacity="0.2"/></radialGradient></defs><title>Монтажная область 1</title><circle class="cls-1" cx="50" cy="50" r="49"/><path class="cls-2" d="M50,2A48,48,0,1,1,2,50,48.05,48.05,0,0,1,50,2m0-2a50,50,0,1,0,50,50A50,50,0,0,0,50,0Z"/><g id="g3113"><path id="path3115" class="cls-2" d="M9.12,67.74l4.36-35.48H16L13.94,48.84H31.07l2.06-16.58h2.49L31.27,67.74h-2.5l2.08-17H13.7l-2.08,17H9.12"/></g><path id="path3125" class="cls-2" d="M88.2,33.42l-1.46,1.64A21.67,21.67,0,0,1,84.9,64.92l-.72.63,1.13,1.89c.36-.3.72-.62,1.07-.94A23.87,23.87,0,0,0,88.2,33.42ZM85,37l-1.47,1.65a16.8,16.8,0,0,1-1.84,22.72l1.14,1.88.31-.28A19,19,0,0,0,85,37Zm-3.14,3.52L80.36,42.2a12.15,12.15,0,0,1-1.15,15.08l1.16,1.92a14.38,14.38,0,0,0,1.47-18.66Z"/><g id="text3127"><path class="cls-2" d="M72.2,50.25a3.42,3.42,0,0,0-1.66-.82,5.79,5.79,0,0,0,1.66-.79,7.5,7.5,0,0,0,1.45-1.35l12.9-15h-2a1.46,1.46,0,0,0-.78.24,2.34,2.34,0,0,0-.64.57L71.25,46.87a6.66,6.66,0,0,1-.93.92,6.07,6.07,0,0,1-.87.56,3.92,3.92,0,0,1-.92.27,6.68,6.68,0,0,1-1,.07H63.74l1.74-14.32H76.76l1.75-2.11H37.12L32.79,67.74h2.48l2.08-17.09H43a17.28,17.28,0,0,0,5.37-.77,12.12,12.12,0,0,0,4.09-2.19A9.7,9.7,0,0,0,56.08,40a6.83,6.83,0,0,0-2.56-5.66h5.29L54.73,67.74H57.2l4.09-33.37H63l-4.1,33.37h2.5l2.07-17.12h4.25a6,6,0,0,1,1.12.1,2.54,2.54,0,0,1,.81.32,1.75,1.75,0,0,1,.61.54,8.78,8.78,0,0,1,.54.78l8.83,14.45a2.43,2.43,0,0,0,.55.71,1.24,1.24,0,0,0,.75.22H83.1l-9.66-15.9A7.14,7.14,0,0,0,72.2,50.25ZM53.58,40.31a8.08,8.08,0,0,1-.74,3.41,7.35,7.35,0,0,1-2.08,2.6,9.89,9.89,0,0,1-3.23,1.75,13.62,13.62,0,0,1-4.23.62H37.61l1.76-14.43h6a16.93,16.93,0,0,1,1.93.1h.05a8.11,8.11,0,0,1,4.14,1.5A5.29,5.29,0,0,1,53.58,40.31Z"/></g></svg>