<svg id="Слой_1" data-name="Слой 1" xmlns="http://www.w3.org/2000/svg" viewBox="0 0 58 58"><defs><style>.cls-1{fill:none;stroke:#fff;stroke-linecap:round;stroke-miterlimit:10;stroke-width:3px;}.cls-2{fill:#fff;}</style></defs><title>1Монтажная область 1</title><path class="cls-1" d="M49.11,17.84A23,23,0,1,1,29,6"/><path class="cls-2" d="M34.41,21.6H23.59a2,2,0,0,0-1.81,1.81L21,31.85a1.35,1.35,0,0,0,1.35,1.48h0a1.35,1.35,0,0,0,1.35-1.21l.77-6.91.85,20.35a1.36,1.36,0,0,0,1.36,1.3h.14a1.35,1.35,0,0,0,1.35-1.26L29,35.13l.81,10.47a1.35,1.35,0,0,0,1.35,1.26h.14a1.36,1.36,0,0,0,1.36-1.3l.85-20.35.77,6.91a1.35,1.35,0,0,0,1.35,1.21h0A1.35,1.35,0,0,0,37,31.85l-.76-8.44A2,2,0,0,0,34.41,21.6Z"/><circle class="cls-2" cx="29" cy="16.37" r="3.61"/></svg>