<svg id="Слой_1" data-name="Слой 1" xmlns="http://www.w3.org/2000/svg" viewBox="0 0 100 100"><defs><style>.cls-1{fill:#333;}</style></defs><title>Монтажная область 1</title><path class="cls-1" d="M90.81,13H83v6.5a5.5,5.5,0,0,1-11,0V13H28v6.5a5.5,5.5,0,0,1-11,0V13H9.19A9.18,9.18,0,0,0,0,22.19V85.81A9.18,9.18,0,0,0,9.19,95H90.81A9.18,9.18,0,0,0,100,85.81V22.19A9.18,9.18,0,0,0,90.81,13ZM93,87.06A1.94,1.94,0,0,1,91.06,89H8.94A1.94,1.94,0,0,1,7,87.06V31H93Z"/><rect class="cls-1" x="33" y="34" width="10" height="10" rx="1.38" ry="1.38"/><rect class="cls-1" x="45" y="34" width="10" height="10" rx="1.38" ry="1.38"/><rect class="cls-1" x="57" y="34" width="10" height="10" rx="1.38" ry="1.38"/><rect class="cls-1" x="69" y="34" width="10" height="10" rx="1.38" ry="1.38"/><rect class="cls-1" x="81" y="34" width="10" height="10" rx="1.38" ry="1.38"/><rect class="cls-1" x="9" y="48.33" width="10" height="10" rx="1.38" ry="1.38"/><rect class="cls-1" x="21" y="48.33" width="10" height="10" rx="1.38" ry="1.38"/><rect class="cls-1" x="33" y="48.33" width="10" height="10" rx="1.38" ry="1.38"/><rect class="cls-1" x="45" y="48.33" width="10" height="10" rx="1.38" ry="1.38"/><rect class="cls-1" x="57" y="48.33" width="10" height="10" rx="1.38" ry="1.38"/><rect class="cls-1" x="69" y="48.33" width="10" height="10" rx="1.38" ry="1.38"/><rect class="cls-1" x="81" y="48.33" width="10" height="10" rx="1.38" ry="1.38"/><rect class="cls-1" x="9" y="62.67" width="10" height="10" rx="1.38" ry="1.38"/><rect class="cls-1" x="21" y="62.67" width="10" height="10" rx="1.38" ry="1.38"/><rect class="cls-1" x="33" y="62.67" width="10" height="10" rx="1.38" ry="1.38"/><rect class="cls-1" x="45" y="62.67" width="10" height="10" rx="1.38" ry="1.38"/><rect class="cls-1" x="57" y="62.67" width="10" height="10" rx="1.38" ry="1.38"/><rect class="cls-1" x="69" y="62.67" width="10" height="10" rx="1.38" ry="1.38"/><rect class="cls-1" x="81" y="62.67" width="10" height="10" rx="1.38" ry="1.38"/><rect class="cls-1" x="9" y="77" width="10" height="10" rx="1.38" ry="1.38"/><rect class="cls-1" x="21" y="77" width="10" height="10" rx="1.38" ry="1.38"/><rect class="cls-1" x="33" y="77" width="10" height="10" rx="1.38" ry="1.38"/><rect class="cls-1" x="45" y="77" width="10" height="10" rx="1.38" ry="1.38"/><rect class="cls-1" x="20" y="3.5" width="5" height="18.5" rx="2.5" ry="2.5"/><rect class="cls-1" x="75" y="3.5" width="5" height="18.5" rx="2.5" ry="2.5"/></svg>