<svg id="Слой_1" data-name="Слой 1" xmlns="http://www.w3.org/2000/svg" viewBox="0 0 100 100"><defs><style>.cls-1{fill:#333;}</style></defs><title>Монтажная область 1</title><path class="cls-1" d="M83,100H17a4.83,4.83,0,0,1-4.71-5.89l4.72-20.9a8.82,8.82,0,0,1,4.86-6L35,61l5.62-4L49,65,45,90l5,7,5-7L51,65l8.38-8L65,61l13.09,6.16a8.82,8.82,0,0,1,4.86,6l4.72,20.9A4.83,4.83,0,0,1,83,100Z"/><path class="cls-1" d="M80.58,22.36a.46.46,0,0,0-.63-.24l-.26.13a2.63,2.63,0,0,1-.71-2,2.22,2.22,0,0,1,.78-1.08,3.29,3.29,0,0,0,1.23-2,3,3,0,0,0-.68-2.24l1.8-.6a1.42,1.42,0,0,0,0-2.68L51.65.6a4.8,4.8,0,0,0-3.3,0l-30.5,11a1.42,1.42,0,0,0,0,2.68l13.19,4.39A29.82,29.82,0,0,0,29.5,28.75a39.35,39.35,0,0,0,.41,5.71C31.78,47.32,39.84,57,49.5,57c5.67,0,10.78-3.33,14.41-8.68A35,35,0,0,0,69.5,28.75,29.72,29.72,0,0,0,68,19l10.25-3.4c.51.51.78,1,.74,1.3s-.25.46-.63.82A4.09,4.09,0,0,0,77,19.78a4.37,4.37,0,0,0,.85,3.37l-.05,0a.44.44,0,0,0-.26.41l.06,6.27a1.12,1.12,0,0,0,1.45,1.06l1.32-.4L79.81,25l1.7,5.15.78-.24A1.13,1.13,0,0,0,83,28.43ZM67.19,33.52a31.19,31.19,0,0,1-5,13.89C58.89,52.11,54.42,55,49.5,55c-8.23,0-15.18-8.09-17.32-19.11A8.47,8.47,0,0,1,32.75,31C34,28,36,24,42,24c2.35,0,4.38,2.15,5,4,1,3-3,4-2,5s5-1,9-3c2.51-1.27,9.1-3,12-2h0a2.13,2.13,0,0,1,1.45,2.11C67.43,31.27,67.34,32.41,67.19,33.52Z"/></svg>